<svg width="408" height="408" viewBox="0 0 408 408" fill="none" xmlns="http://www.w3.org/2000/svg">
<g clip-path="url(#clip0_1_2)">
<circle cx="204" cy="204" r="204" fill="url(#paint0_radial_1_2)"/>
<path d="M83.44 293C81.9733 293 80.7267 292.487 79.7 291.46C78.6733 290.433 78.16 289.187 78.16 287.72V144.5C78.16 142.887 78.6733 141.567 79.7 140.54C80.7267 139.513 81.9733 139 83.44 139H178.92C180.533 139 181.853 139.513 182.88 140.54C183.907 141.567 184.42 142.887 184.42 144.5V159.9C184.42 161.513 183.907 162.833 182.88 163.86C181.853 164.74 180.533 165.18 178.92 165.18H108.3V206.98H174.52C176.133 206.98 177.453 207.493 178.48 208.52C179.507 209.547 180.02 210.867 180.02 212.48V227.88C180.02 229.347 179.507 230.593 178.48 231.62C177.453 232.647 176.133 233.16 174.52 233.16H108.3V287.72C108.3 289.187 107.787 290.433 106.76 291.46C105.733 292.487 104.413 293 102.8 293H83.44ZM215.569 293C214.102 293 212.856 292.487 211.829 291.46C210.802 290.433 210.289 289.187 210.289 287.72V144.5C210.289 142.887 210.802 141.567 211.829 140.54C212.856 139.513 214.102 139 215.569 139H279.369C291.249 139 300.929 140.833 308.409 144.5C315.889 148.02 321.389 152.933 324.909 159.24C328.576 165.547 330.409 172.88 330.409 181.24C330.409 186.813 329.382 191.727 327.329 195.98C325.422 200.087 323.002 203.46 320.069 206.1C317.282 208.74 314.496 210.793 311.709 212.26C317.429 214.9 322.489 219.3 326.889 225.46C331.289 231.62 333.489 238.953 333.489 247.46C333.489 256.26 331.509 264.107 327.549 271C323.589 277.893 317.722 283.32 309.949 287.28C302.176 291.093 292.569 293 281.129 293H215.569ZM240.869 269.68H277.609C285.529 269.68 291.542 267.553 295.649 263.3C299.756 258.9 301.809 253.62 301.809 247.46C301.809 241.007 299.682 235.653 295.429 231.4C291.322 227.147 285.382 225.02 277.609 225.02H240.869V269.68ZM240.869 202.14H275.409C283.182 202.14 288.976 200.307 292.789 196.64C296.749 192.827 298.729 187.913 298.729 181.9C298.729 175.74 296.749 170.973 292.789 167.6C288.976 164.08 283.182 162.32 275.409 162.32H240.869V202.14Z" fill="#E8E8E8"/>
</g>
<defs>
<radialGradient id="paint0_radial_1_2" cx="0" cy="0" r="1" gradientUnits="userSpaceOnUse" gradientTransform="translate(204 204) rotate(-18.6557) scale(164.123)">
<stop stop-color="#3775EA"/>
<stop offset="1" stop-color="#3F51B5" stop-opacity="0.94"/>
</radialGradient>
<clipPath id="clip0_1_2">
<rect width="408" height="408" fill="white"/>
</clipPath>
</defs>
</svg>
